<svg xmlns="http://www.w3.org/2000/svg" viewBox="0 0 773.49011 285.66507"><g id="Layer_2" data-name="Layer 2"><g id="Layer_1-2" data-name="Layer 1"><path d="M0,205.58659V5.88943H102.93273V33.09458H47.67951V85.54331H101.25v26.36537H47.67951v93.67791Z" style="fill:#1056f5"/><path d="M201.0994,205.58659v-79.093H173.05133v79.093h-47.96V38.98559C125.09137,14.86381,152.01607,0,187.07537,0c34.218,0,61.4231,14.86381,61.4231,38.98559v166.601Zm0-167.7228c0-8.41505-4.76763-12.62179-14.024-12.62179s-14.024,4.20674-14.024,12.62179v62.5449H201.0994Z" style="fill:#1056f5"/><path d="M427.44238,205.58659V5.88943H475.1219V205.58659Z" style="fill:#1056f5"/><path d="M580.58182,205.58659v-79.093H552.53375v79.093h-47.96V38.98559C504.57379,14.86381,531.49849,0,566.55779,0c34.218,0,61.4231,14.86381,61.4231,38.98559v166.601Zm0-167.7228c0-8.41505-4.76763-12.62179-14.024-12.62179s-14.024,4.20674-14.024,12.62179v62.5449h28.04807Z" style="fill:#1056f5"/><path d="M771.58505,173.33178c0,28.32852-21.03526,38.42469-59.1795,38.42469-34.218,0-58.05929-10.09617-58.05929-42.07053V136.87023h44.03525v37.02245c0,8.415,4.76764,12.62179,14.024,12.62179,9.25482,0,14.02246-4.20674,14.02246-15.42628V153.69876a29.36072,29.36072,0,0,0-10.65707-22.718L675.944,98.44554C661.92,87.226,656.311,77.69073,656.311,60.8622v-19.633C656.311,10.09617,675.66355,0,714.64914,0c34.21795,0,56.93591,10.14906,56.93591,42.12341v26.0081l-42.91188.02237V37.86379c0-8.41505-4.76921-12.62179-14.024-12.62179-9.2564,0-14.024,4.20674-14.024,13.74359v13.742c0,11.5,1.6827,15.42628,10.09775,22.15864l42.351,33.9375c12.34134,9.81572,18.51122,21.87661,18.51122,39.82694Z" style="fill:#1056f5"/><path d="M353.9003,205.58659v-68.9968c0-12.62179-6.17146-19.07213-17.66987-19.07213h-10.3782v88.06893h-47.96V41.79008C277.89227,10.09617,304.817,0,339.87627,0c34.218,0,58.6186,10.09617,58.6186,42.07053V74.60579c0,19.07212-9.81572,29.44874-33.9375,31.13143,24.12178,2.24517,35.33975,11.21955,35.33975,26.92628v72.92309Zm0-167.7228c0-8.41505-4.76921-12.62179-14.024-12.62179-9.2564,0-14.024,4.20674-14.024,12.62179V95.08015h10.3782c11.218,0,17.66987-4.76763,17.66987-17.95032Z" style="fill:#1056f5"/><path d="M2.7045,243.47414V242.978h7.33209l5.46846,13.91841,3.60324,9.38177,3.60323-9.44378L28.18,242.978h7.27008v.49612L21.77971,275.90962H16.37485Z" style="fill:#1056f5"/><path d="M58.75024,231.26512a5.041,5.041,0,0,1,6.836,0,4.54255,4.54255,0,0,1,1.36593,3.387,4.36367,4.36367,0,0,1-1.36593,3.29316,5.1318,5.1318,0,0,1-6.836,0,4.358,4.358,0,0,1-1.36592-3.29316A4.5366,4.5366,0,0,1,58.75024,231.26512Zm-.062,11.7129h6.898v32.9316h-6.898Z" style="fill:#1056f5"/><path d="M98.70227,274.32585a15.52768,15.52768,0,0,1-5.84055-6.12041,19.282,19.282,0,0,1,0-17.55345,15.5162,15.5162,0,0,1,5.87077-6.0902,16.45568,16.45568,0,0,1,8.48175-2.20551,17.17536,17.17536,0,0,1,6.24445,1.11786,15.4225,15.4225,0,0,1,5.06456,3.16913V232.41478h6.898v43.49484h-6.52431l-.12562-3.9149a15.06119,15.06119,0,0,1-5.125,3.35518,17.16689,17.16689,0,0,1-6.43208,1.18146A16.39155,16.39155,0,0,1,98.70227,274.32585Zm.34188-9.35156a9.49057,9.49057,0,0,0,3.69706,3.75907,10.78543,10.78543,0,0,0,5.40485,1.33571,10.22465,10.22465,0,0,0,7.54994-2.95128,11.45264,11.45264,0,0,0,0-15.34794,10.22465,10.22465,0,0,0-7.54994-2.95128,10.78543,10.78543,0,0,0-5.40485,1.33571,9.50081,9.50081,0,0,0-3.69706,3.75907,12.11723,12.11723,0,0,0,0,11.06094Z" style="fill:#1056f5"/><path d="M152.88439,242.978h6.71035l.124,4.163a11.27008,11.27008,0,0,1,9.44537-4.66067,18.02076,18.02076,0,0,1,3.97692.49771v6.27624a17.2812,17.2812,0,0,0-3.47921-.43569,9.88126,9.88126,0,0,0-7.11583,2.6412,9.22,9.22,0,0,0-2.76365,6.99022v17.45963h-6.898Z" style="fill:#1056f5"/><path d="M202.12755,274.32585a16.01315,16.01315,0,0,1-6.18243-6.0902,18.393,18.393,0,0,1,0-17.58366,16.02415,16.02415,0,0,1,6.18243-6.0902,19.3142,19.3142,0,0,1,17.92554,0,15.97835,15.97835,0,0,1,6.21423,6.0902,18.393,18.393,0,0,1,0,17.58366,15.96745,15.96745,0,0,1-6.21423,6.0902,19.3142,19.3142,0,0,1-17.92554,0Zm-.062-9.41357a9.69318,9.69318,0,0,0,3.697,3.78928,11.12406,11.12406,0,0,0,10.68727,0,9.704,9.704,0,0,0,3.697-3.78928,11.86192,11.86192,0,0,0,0-10.93692,9.71458,9.71458,0,0,0-3.697-3.78928,11.12406,11.12406,0,0,0-10.68727,0,9.70375,9.70375,0,0,0-3.697,3.78928,11.86192,11.86192,0,0,0,0,10.93692Z" style="fill:#1056f5"/><path d="M255.346,273.58008a10.2163,10.2163,0,0,1-3.97691-7.98563h6.96a4.45158,4.45158,0,0,0,2.08148,3.54281,9.11734,9.11734,0,0,0,5.06456,1.24189,11.10622,11.10622,0,0,0,5.125-.99383,3.1469,3.1469,0,0,0,1.89543-2.92107,2.62232,2.62232,0,0,0-.68375-1.89385,5.4082,5.4082,0,0,0-2.32955-1.21168,33.45117,33.45117,0,0,0-4.7529-.93181q-6.898-1.05665-9.91128-3.41879a8.02157,8.02157,0,0,1-3.0133-6.71035,8.394,8.394,0,0,1,3.79087-7.33209,16.84066,16.84066,0,0,1,9.75386-2.6094q5.84134,0,9.35156,2.73343a9.82353,9.82353,0,0,1,3.82268,7.45771h-6.836a4.09033,4.09033,0,0,0-1.95745-3.0769,8.43565,8.43565,0,0,0-4.56685-1.08765,9.31746,9.31746,0,0,0-4.72269.99542,3.09851,3.09851,0,0,0-1.67759,2.79545,2.95438,2.95438,0,0,0,1.70939,2.73344,20.22446,20.22446,0,0,0,6.24445,1.55356q6.21344.80858,9.47558,3.01329a7.5173,7.5173,0,0,1,3.26295,6.68014,8.67626,8.67626,0,0,1-3.9467,7.64217,17.75409,17.75409,0,0,1-10.15935,2.673Q259.07411,276.46935,255.346,273.58008Z" style="fill:#1056f5"/><path d="M344.10554,274.32585a15.92662,15.92662,0,0,1-6.0902-6.0902,18.6262,18.6262,0,0,1,0-17.58366,15.93759,15.93759,0,0,1,6.0902-6.0902,17.49609,17.49609,0,0,1,8.79184-2.20551,17.9813,17.9813,0,0,1,8.88565,2.1753,15.33087,15.33087,0,0,1,6.08861,6.12041,18.542,18.542,0,0,1,2.17529,9.10191q0,1.3047-.062,1.98925H342.89386a10.0829,10.0829,0,0,0,3.387,6.15062,9.86135,9.86135,0,0,0,6.61654,2.29933,11.4538,11.4538,0,0,0,5.25061-1.17987,8.32409,8.32409,0,0,0,3.511-3.16913h7.45612a15.07044,15.07044,0,0,1-6.0902,7.82821,18.00673,18.00673,0,0,1-10.12754,2.85905A17.47976,17.47976,0,0,1,344.10554,274.32585Zm18.85736-17.92713a10.32,10.32,0,0,0-3.60323-5.59249,10.1036,10.1036,0,0,0-6.46229-2.11169,9.84376,9.84376,0,0,0-6.33826,2.08148,10.00486,10.00486,0,0,0-3.47921,5.6227Z" style="fill:#1056f5"/><path d="M440.84909,275.41191a15.41131,15.41131,0,0,1-5.063-3.16754v13.4207h-6.898V242.978h6.5243l.124,3.9149a15.07579,15.07579,0,0,1,5.12659-3.35518,17.1526,17.1526,0,0,1,6.43048-1.18146,16.45572,16.45572,0,0,1,8.48176,2.20551,15.53093,15.53093,0,0,1,5.87235,6.0902,18.10756,18.10756,0,0,1,2.1117,8.79183,18.36551,18.36551,0,0,1-2.08148,8.76162,15.25876,15.25876,0,0,1-5.84055,6.12041,16.56014,16.56014,0,0,1-8.54378,2.20551A17.15472,17.15472,0,0,1,440.84909,275.41191Zm-2.23731-8.29412a10.22465,10.22465,0,0,0,7.54994,2.95128,10.79572,10.79572,0,0,0,5.40644-1.33571,9.51135,9.51135,0,0,0,3.69706-3.75907,12.11731,12.11731,0,0,0,0-11.06094,9.52163,9.52163,0,0,0-3.69706-3.75907,10.79572,10.79572,0,0,0-5.40644-1.33571,10.22465,10.22465,0,0,0-7.54994,2.95128,11.45261,11.45261,0,0,0,0,15.34794Z" style="fill:#1056f5"/><path d="M494.71954,274.32585a16.01309,16.01309,0,0,1-6.18243-6.0902,18.393,18.393,0,0,1,0-17.58366,16.02408,16.02408,0,0,1,6.18243-6.0902,19.3142,19.3142,0,0,1,17.92554,0,15.97835,15.97835,0,0,1,6.21423,6.0902,18.393,18.393,0,0,1,0,17.58366,15.96745,15.96745,0,0,1-6.21423,6.0902,19.3142,19.3142,0,0,1-17.92554,0Zm-.062-9.41357a9.69325,9.69325,0,0,0,3.69705,3.78928,11.12406,11.12406,0,0,0,10.68727,0,9.70408,9.70408,0,0,0,3.69706-3.78928,11.86192,11.86192,0,0,0,0-10.93692,9.71467,9.71467,0,0,0-3.69706-3.78928,11.12406,11.12406,0,0,0-10.68727,0,9.70382,9.70382,0,0,0-3.69705,3.78928,11.86192,11.86192,0,0,0,0,10.93692Z" style="fill:#1056f5"/><path d="M546.19843,242.978h6.71035l.124,4.163a11.27008,11.27008,0,0,1,9.44537-4.66067,18.02076,18.02076,0,0,1,3.97692.49771v6.27624a17.2812,17.2812,0,0,0-3.47921-.43569,9.88126,9.88126,0,0,0-7.11583,2.6412,9.22,9.22,0,0,0-2.76365,6.99022v17.45963h-6.898Z" style="fill:#1056f5"/><path d="M595.9075,273.54828q-2.92187-2.67142-2.92107-8.20189V248.75655h-6.40028V242.978h6.40028v-7.51814l6.898-.74577V242.978h8.574v5.77853h-8.574v15.782a5.35365,5.35365,0,0,0,1.39772,4.13275A6.575,6.575,0,0,0,605.787,269.945a18.75691,18.75691,0,0,0,3.10712-.24965v6.21423a35.36082,35.36082,0,0,1-4.28859.31008Q598.82858,276.2197,595.9075,273.54828Z" style="fill:#1056f5"/><path d="M639.37054,274.32585a16.01309,16.01309,0,0,1-6.18243-6.0902,18.393,18.393,0,0,1,0-17.58366,16.02408,16.02408,0,0,1,6.18243-6.0902,19.3142,19.3142,0,0,1,17.92554,0,15.97835,15.97835,0,0,1,6.21423,6.0902,18.393,18.393,0,0,1,0,17.58366,15.96745,15.96745,0,0,1-6.21423,6.0902,19.3142,19.3142,0,0,1-17.92554,0Zm-.062-9.41357a9.69328,9.69328,0,0,0,3.69706,3.78928,11.12406,11.12406,0,0,0,10.68727,0,9.70406,9.70406,0,0,0,3.697-3.78928,11.86192,11.86192,0,0,0,0-10.93692,9.71464,9.71464,0,0,0-3.697-3.78928,11.12406,11.12406,0,0,0-10.68727,0,9.70384,9.70384,0,0,0-3.69706,3.78928,11.86192,11.86192,0,0,0,0,10.93692Z" style="fill:#1056f5"/><path d="M696.7838,274.32585a15.92655,15.92655,0,0,1-6.0902-6.0902,18.62613,18.62613,0,0,1,0-17.58366,15.93753,15.93753,0,0,1,6.0902-6.0902,17.496,17.496,0,0,1,8.79183-2.20551,17.9813,17.9813,0,0,1,8.88565,2.1753,15.33087,15.33087,0,0,1,6.08861,6.12041,18.542,18.542,0,0,1,2.1753,9.10191q0,1.3047-.062,1.98925h-27.091a10.08289,10.08289,0,0,0,3.387,6.15062,9.86135,9.86135,0,0,0,6.61654,2.29933,11.4538,11.4538,0,0,0,5.25061-1.17987,8.324,8.324,0,0,0,3.511-3.16913h7.45612a15.07044,15.07044,0,0,1-6.0902,7.82821,18.00673,18.00673,0,0,1-10.12754,2.85905A17.47969,17.47969,0,0,1,696.7838,274.32585Zm18.85735-17.92713a10.32,10.32,0,0,0-3.60323-5.59249,10.10359,10.10359,0,0,0-6.46229-2.11169,9.84376,9.84376,0,0,0-6.33826,2.08148,10.00486,10.00486,0,0,0-3.47921,5.6227Z" style="fill:#1056f5"/><path d="M749.38055,273.58008a10.21627,10.21627,0,0,1-3.97692-7.98563h6.96a4.4516,4.4516,0,0,0,2.08148,3.54281,9.11737,9.11737,0,0,0,5.06457,1.24189,11.10615,11.10615,0,0,0,5.125-.99383,3.1469,3.1469,0,0,0,1.89543-2.92107,2.62228,2.62228,0,0,0-.68375-1.89385,5.40815,5.40815,0,0,0-2.32954-1.21168,33.45117,33.45117,0,0,0-4.7529-.93181q-6.898-1.05665-9.91129-3.41879a8.02159,8.02159,0,0,1-3.01329-6.71035,8.394,8.394,0,0,1,3.79087-7.33209,16.84062,16.84062,0,0,1,9.75386-2.6094q5.84134,0,9.35156,2.73343a9.82352,9.82352,0,0,1,3.82267,7.45771h-6.836a4.09039,4.09039,0,0,0-1.95745-3.0769,8.43571,8.43571,0,0,0-4.56686-1.08765,9.31751,9.31751,0,0,0-4.72269.99542,3.0985,3.0985,0,0,0-1.67758,2.79545,2.95436,2.95436,0,0,0,1.70939,2.73344,20.2243,20.2243,0,0,0,6.24444,1.55356q6.21344.80858,9.47559,3.01329a7.5173,7.5173,0,0,1,3.26295,6.68014,8.67625,8.67625,0,0,1-3.94671,7.64217,17.754,17.754,0,0,1-10.15934,2.673Q753.1086,276.46935,749.38055,273.58008Z" style="fill:#1056f5"/><path d="M645.14985,235.66249c-1.50911,0-2.47625,1.27683-2.55367,3.24984h-3.09563c.11613-4.64281,2.3214-6.8868,5.417-6.8868,3.75309,0,5.417,3.59825,7.5836,3.59825,1.54781,0,2.515-1.31555,2.59238-3.28856h3.05628c-.07742,4.68153-2.28269,6.8868-5.4164,6.8868C649.05778,239.222,647.35512,235.66249,645.14985,235.66249Z" style="fill:#1056f5"/></g></g></svg>