<svg xmlns="http://www.w3.org/2000/svg" viewBox="0 0 977.2543 977.2543"><g id="Layer_2" data-name="Layer 2"><g id="Layer_1-2" data-name="Layer 1"><rect width="977.2543" height="977.2543" rx="488.62666" style="fill:#fff"/><path d="M115.92533,626.4453V433.99942h99.19511v26.21729h-53.2469V510.761h51.6253v25.408h-51.6253V626.4453Z" style="fill:#1056f5"/><path d="M309.72254,626.4453v-76.221h-27.0296v76.221H236.47447V465.89381c0-23.24589,25.947-37.57,59.73327-37.57,32.97545,0,59.19274,14.32408,59.19274,37.57V626.4453Zm0-161.63255c0-8.10949-4.59451-12.16348-13.5148-12.16348s-13.5148,4.054-13.5148,12.16348v60.2738h27.0296Z" style="fill:#1056f5"/><path d="M527.8467,626.4453V433.99942h45.94821V626.4453Z" style="fill:#1056f5"/><path d="M675.42544,626.4453v-76.221H648.39583v76.221H602.17736V465.89381c0-23.24589,25.947-37.57,59.73328-37.57,32.97545,0,59.19274,14.32408,59.19274,37.57V626.4453Zm0-161.63255c0-8.10949-4.59452-12.16348-13.5148-12.16348s-13.51481,4.054-13.51481,12.16348v60.2738h27.02961Z" style="fill:#1056f5"/><path d="M859.49309,595.36171c0,27.29987-20.27145,37.02944-57.03062,37.02944-32.97545,0-55.95108-9.72957-55.95108-40.5429V560.22413h42.43627v35.67811c0,8.10949,4.59452,12.16347,13.51481,12.16347,8.91877,0,13.51328-4.054,13.51328-14.86613v-16.758a28.29456,28.29456,0,0,0-10.27009-21.893l-38.38077-31.35386c-13.5148-10.81214-18.92012-20.00118-18.92012-36.21864V468.05593c0-30.00253,18.64985-39.73209,56.21982-39.73209,32.97546,0,54.8685,9.78053,54.8685,40.59386v25.0637l-41.35369.02156V464.81275c0-8.10949-4.596-12.16348-13.51481-12.16348-8.92028,0-13.5148,4.054-13.5148,13.24454v13.243c0,11.08241,1.62159,14.86613,9.73108,21.354L841.654,533.196c11.89321,9.4593,17.83906,21.08224,17.83906,38.38077Z" style="fill:#1056f5"/><path d="M456.975,626.4453V559.95386c0-12.16347-5.94737-18.37958-17.02826-18.37958H429.94543v84.871H383.727V468.59647c0-30.54307,25.947-40.27263,59.73327-40.27263,32.97545,0,56.49009,9.72956,56.49009,40.54289v31.35386c0,18.37959-9.4593,28.37942-32.70519,30.001,23.24589,2.16364,34.05652,10.81215,34.05652,25.94854V626.4453Zm0-161.63255c0-8.10949-4.596-12.16348-13.51481-12.16348-8.92028,0-13.5148,4.054-13.5148,12.16348V519.9515h10.00135c10.81063,0,17.02826-4.59451,17.02826-17.29852Z" style="fill:#1056f5"/><path d="M118.53163,662.9571v-.4781h7.06585l5.2699,13.413,3.47239,9.04111,3.4724-9.10087,5.26989-13.35325h7.00609v.4781l-13.174,31.25771h-5.2086Z" style="fill:#1056f5"/><path d="M172.54228,651.1914a4.858,4.858,0,0,1,6.58774,0,4.37766,4.37766,0,0,1,1.31633,3.264A4.20524,4.20524,0,0,1,179.13,657.629a4.94546,4.94546,0,0,1-6.58774,0,4.19972,4.19972,0,0,1-1.31633-3.17358A4.37191,4.37191,0,0,1,172.54228,651.1914Zm-.05977,11.2876H179.13v31.73581h-6.64751Z" style="fill:#1056f5"/><path d="M211.0436,692.68855a14.96381,14.96381,0,0,1-5.62848-5.89817,18.58192,18.58192,0,0,1,0-16.91607,14.95276,14.95276,0,0,1,5.65759-5.86905,15.85816,15.85816,0,0,1,8.17377-2.12543,16.55159,16.55159,0,0,1,6.0177,1.07727,14.86239,14.86239,0,0,1,4.88067,3.05406V652.29932h6.64751v41.91549H230.505l-.12106-3.77275a14.5142,14.5142,0,0,1-4.9389,3.23335,16.5435,16.5435,0,0,1-6.19852,1.13856A15.7963,15.7963,0,0,1,211.0436,692.68855Zm.32946-9.012a9.146,9.146,0,0,0,3.56281,3.62257,10.39387,10.39387,0,0,0,5.20859,1.28721,9.85339,9.85339,0,0,0,7.2758-2.84412,11.0368,11.0368,0,0,0,0-14.79064,9.85342,9.85342,0,0,0-7.2758-2.84411,10.394,10.394,0,0,0-5.20859,1.2872,9.15589,9.15589,0,0,0-3.56281,3.62258,11.67724,11.67724,0,0,0,0,10.65931Z" style="fill:#1056f5"/><path d="M263.25828,662.479H269.725l.11953,4.01179a10.86087,10.86087,0,0,1,9.1024-4.49143,17.36643,17.36643,0,0,1,3.83251.47964v6.04834a16.65384,16.65384,0,0,0-3.35287-.41987,9.52243,9.52243,0,0,0-6.85745,2.5453,8.88518,8.88518,0,0,0-2.6633,6.73639v16.82565h-6.64751Z" style="fill:#1056f5"/><path d="M310.71336,692.68855a15.43172,15.43172,0,0,1-5.95794-5.86906,17.72517,17.72517,0,0,1,0-16.94518,15.44228,15.44228,0,0,1,5.95794-5.86905,18.61284,18.61284,0,0,1,17.27464,0,15.39811,15.39811,0,0,1,5.98858,5.86905,17.7251,17.7251,0,0,1,0,16.94518,15.38764,15.38764,0,0,1-5.98858,5.86906,18.61291,18.61291,0,0,1-17.27464,0Zm-.05976-9.07176a9.34131,9.34131,0,0,0,3.5628,3.65169,10.72008,10.72008,0,0,0,10.2992,0,9.35166,9.35166,0,0,0,3.56281-3.65169,11.43118,11.43118,0,0,0,0-10.53978,9.36185,9.36185,0,0,0-3.56281-3.65169,10.72015,10.72015,0,0,0-10.2992,0,9.35148,9.35148,0,0,0-3.5628,3.65169,11.43118,11.43118,0,0,0,0,10.53978Z" style="fill:#1056f5"/><path d="M361.99942,691.96986a9.8453,9.8453,0,0,1-3.83251-7.69567h6.70727a4.29,4.29,0,0,0,2.0059,3.41417,8.78628,8.78628,0,0,0,4.88066,1.19679,10.70281,10.70281,0,0,0,4.9389-.95774,3.03262,3.03262,0,0,0,1.82661-2.815,2.52706,2.52706,0,0,0-.65893-1.82508,5.21175,5.21175,0,0,0-2.245-1.16768,32.23631,32.23631,0,0,0-4.58032-.898q-6.64751-1.01828-9.55139-3.29464a7.73034,7.73034,0,0,1-2.90388-6.46669,8.08924,8.08924,0,0,1,3.65322-7.06586,16.22918,16.22918,0,0,1,9.39969-2.51465q5.62923,0,9.012,2.63418a9.46677,9.46677,0,0,1,3.68386,7.18691H377.7478a3.94183,3.94183,0,0,0-1.88638-2.96517,8.12933,8.12933,0,0,0-4.401-1.04816,8.979,8.979,0,0,0-4.5512.95928,2.986,2.986,0,0,0-1.61668,2.69394,2.84709,2.84709,0,0,0,1.64732,2.63418,19.48963,19.48963,0,0,0,6.0177,1.49715q5.98782.77922,9.13152,2.90388a7.24433,7.24433,0,0,1,3.14447,6.43757,8.36118,8.36118,0,0,1-3.8034,7.36467,17.1094,17.1094,0,0,1-9.79044,2.57595Q365.59211,694.75421,361.99942,691.96986Z" style="fill:#1056f5"/><path d="M447.53594,692.68855a15.34832,15.34832,0,0,1-5.86906-5.86906,17.94991,17.94991,0,0,1,0-16.94518,15.35886,15.35886,0,0,1,5.86906-5.86905,16.86073,16.86073,0,0,1,8.47259-2.12543,17.32839,17.32839,0,0,1,8.563,2.09631,14.77426,14.77426,0,0,1,5.86752,5.89817,17.86875,17.86875,0,0,1,2.09631,8.77141q0,1.25733-.05976,1.917H446.36826a9.71681,9.71681,0,0,0,3.264,5.92729,9.50329,9.50329,0,0,0,6.37628,2.21583,11.03787,11.03787,0,0,0,5.06-1.137,8.02167,8.02167,0,0,0,3.38352-3.05405h7.18538a14.52315,14.52315,0,0,1-5.86906,7.544,17.3529,17.3529,0,0,1-9.75979,2.75523A16.845,16.845,0,0,1,447.53594,692.68855Zm18.17262-17.27618a9.94519,9.94519,0,0,0-3.4724-5.38941,9.73663,9.73663,0,0,0-6.22763-2.035,9.48634,9.48634,0,0,0-6.10811,2.0059,9.64156,9.64156,0,0,0-3.35287,5.41853Z" style="fill:#1056f5"/><path d="M540.7666,693.73517a14.85186,14.85186,0,0,1-4.87914-3.05252V703.616H529.24V662.479h6.2874l.11953,3.77274a14.52828,14.52828,0,0,1,4.94043-3.23334,16.52956,16.52956,0,0,1,6.197-1.13857,15.85817,15.85817,0,0,1,8.17378,2.12543,14.967,14.967,0,0,1,5.65912,5.86905,17.4502,17.4502,0,0,1,2.035,8.47259,17.69861,17.69861,0,0,1-2.0059,8.44348,14.70455,14.70455,0,0,1-5.62847,5.89817,15.95881,15.95881,0,0,1-8.23354,2.12542A16.53174,16.53174,0,0,1,540.7666,693.73517Zm-2.15608-7.993a9.85337,9.85337,0,0,0,7.27579,2.84412,10.40378,10.40378,0,0,0,5.21013-1.28721,9.16594,9.16594,0,0,0,3.56281-3.62257,11.67724,11.67724,0,0,0,0-10.65931,9.17593,9.17593,0,0,0-3.56281-3.62258,10.40388,10.40388,0,0,0-5.21013-1.2872,9.8534,9.8534,0,0,0-7.27579,2.84411,11.03677,11.03677,0,0,0,0,14.79064Z" style="fill:#1056f5"/><path d="M592.68093,692.68855a15.43169,15.43169,0,0,1-5.95793-5.86906,17.7251,17.7251,0,0,1,0-16.94518,15.44225,15.44225,0,0,1,5.95793-5.86905,18.61284,18.61284,0,0,1,17.27464,0,15.3982,15.3982,0,0,1,5.98859,5.86905,17.72517,17.72517,0,0,1,0,16.94518,15.38774,15.38774,0,0,1-5.98859,5.86906,18.61291,18.61291,0,0,1-17.27464,0Zm-.05976-9.07176a9.34127,9.34127,0,0,0,3.56281,3.65169,10.72008,10.72008,0,0,0,10.2992,0,9.3518,9.3518,0,0,0,3.56281-3.65169,11.43126,11.43126,0,0,0,0-10.53978,9.362,9.362,0,0,0-3.56281-3.65169,10.72015,10.72015,0,0,0-10.2992,0,9.35143,9.35143,0,0,0-3.56281,3.65169,11.43118,11.43118,0,0,0,0,10.53978Z" style="fill:#1056f5"/><path d="M642.29055,662.479h6.46669l.11953,4.01179a10.86087,10.86087,0,0,1,9.1024-4.49143,17.36636,17.36636,0,0,1,3.83251.47964v6.04834a16.65384,16.65384,0,0,0-3.35287-.41987,9.52243,9.52243,0,0,0-6.85745,2.5453,8.88518,8.88518,0,0,0-2.6633,6.73639v16.82565h-6.64751Z" style="fill:#1056f5"/><path d="M690.19462,691.93921q-2.81577-2.57442-2.815-7.90407V668.0477h-6.16787V662.479h6.16787v-7.24515l6.64751-.71869V662.479h8.26265v5.5687h-8.26265v15.209a5.15928,5.15928,0,0,0,1.347,3.98269,6.3363,6.3363,0,0,0,4.34127,1.22744,18.07656,18.07656,0,0,0,2.99429-.24058v5.98858a34.0775,34.0775,0,0,1-4.13286.29882Q693.00963,694.51363,690.19462,691.93921Z" style="fill:#1056f5"/><path d="M732.07946,692.68855a15.43163,15.43163,0,0,1-5.95793-5.86906,17.7251,17.7251,0,0,1,0-16.94518,15.44219,15.44219,0,0,1,5.95793-5.86905,18.61284,18.61284,0,0,1,17.27464,0,15.3982,15.3982,0,0,1,5.98859,5.86905,17.72517,17.72517,0,0,1,0,16.94518,15.38774,15.38774,0,0,1-5.98859,5.86906,18.61291,18.61291,0,0,1-17.27464,0Zm-.05976-9.07176a9.34127,9.34127,0,0,0,3.56281,3.65169,10.72006,10.72006,0,0,0,10.29919,0,9.35166,9.35166,0,0,0,3.56281-3.65169,11.43118,11.43118,0,0,0,0-10.53978,9.36185,9.36185,0,0,0-3.56281-3.65169,10.72013,10.72013,0,0,0-10.29919,0,9.35143,9.35143,0,0,0-3.56281,3.65169,11.43118,11.43118,0,0,0,0,10.53978Z" style="fill:#1056f5"/><path d="M787.408,692.68855a15.34829,15.34829,0,0,1-5.86905-5.86906,17.94983,17.94983,0,0,1,0-16.94518,15.35883,15.35883,0,0,1,5.86905-5.86905,16.86075,16.86075,0,0,1,8.47259-2.12543,17.32837,17.32837,0,0,1,8.563,2.09631,14.77423,14.77423,0,0,1,5.86753,5.89817,17.86875,17.86875,0,0,1,2.09631,8.77141q0,1.25733-.05977,1.917H786.24028a9.71686,9.71686,0,0,0,3.264,5.92729,9.50331,9.50331,0,0,0,6.37628,2.21583,11.03791,11.03791,0,0,0,5.06-1.137,8.02179,8.02179,0,0,0,3.38352-3.05405h7.18538a14.52325,14.52325,0,0,1-5.86906,7.544,17.35294,17.35294,0,0,1-9.7598,2.75523A16.845,16.845,0,0,1,787.408,692.68855Zm18.17263-17.27618a9.94525,9.94525,0,0,0-3.4724-5.38941,9.73667,9.73667,0,0,0-6.22764-2.035,9.48637,9.48637,0,0,0-6.10811,2.0059,9.64161,9.64161,0,0,0-3.35287,5.41853Z" style="fill:#1056f5"/><path d="M838.09485,691.96986a9.84532,9.84532,0,0,1-3.8325-7.69567h6.70727a4.29,4.29,0,0,0,2.0059,3.41417,8.78628,8.78628,0,0,0,4.88066,1.19679,10.70281,10.70281,0,0,0,4.9389-.95774,3.03262,3.03262,0,0,0,1.82661-2.815,2.52706,2.52706,0,0,0-.65893-1.82508,5.21175,5.21175,0,0,0-2.245-1.16768,32.23631,32.23631,0,0,0-4.58032-.898q-6.6475-1.01828-9.55139-3.29464a7.73034,7.73034,0,0,1-2.90388-6.46669,8.08924,8.08924,0,0,1,3.65322-7.06586,16.22918,16.22918,0,0,1,9.39969-2.51465q5.62923,0,9.012,2.63418a9.46677,9.46677,0,0,1,3.68386,7.18691h-6.58774a3.94183,3.94183,0,0,0-1.88638-2.96517,8.12933,8.12933,0,0,0-4.401-1.04816,8.97909,8.97909,0,0,0-4.55121.95928,2.986,2.986,0,0,0-1.61667,2.69394,2.84709,2.84709,0,0,0,1.64732,2.63418,19.48955,19.48955,0,0,0,6.0177,1.49715q5.98782.77922,9.13152,2.90388a7.24433,7.24433,0,0,1,3.14446,6.43757,8.36119,8.36119,0,0,1-3.80339,7.36467,17.1094,17.1094,0,0,1-9.79044,2.57595Q841.68755,694.75421,838.09485,691.96986Z" style="fill:#1056f5"/><path d="M737.64892,655.4291c-1.45431,0-2.38634,1.23047-2.461,3.13183h-2.98322c.11191-4.47422,2.23711-6.63672,5.22033-6.63672,3.61681,0,5.22034,3.46759,7.30823,3.46759,1.49161,0,2.42363-1.26778,2.49825-3.16914h2.9453c-.07461,4.51152-2.1998,6.63672-5.21972,6.63672C741.41494,658.85938,739.77411,655.4291,737.64892,655.4291Z" style="fill:#435275"/><polygon points="861.329 404.02 457.095 404.02 457.095 162.514 861.329 404.02" style="fill:#1056f5"/><polygon points="411.147 404.02 411.147 235.075 117.761 404.02 412.584 404.02 412.584 404.02 411.147 404.02" style="fill:#f5b111"/></g></g></svg>